<svg width="254" height="182" viewBox="0 0 254 182" fill="none" xmlns="http://www.w3.org/2000/svg">
<path d="M69.7238 105.513L70.0392 160.042L18.7439 132.524L69.7238 105.513Z" fill="black"/>
<path d="M69.7238 105.513L70.0392 160.042L18.7439 132.524L69.7238 105.513Z" fill="black"/>
<path d="M132.009 79.3682L183.797 105.692L130.649 134.205L132.009 79.3682Z" fill="black"/>
<path d="M132.009 79.3682L183.797 105.692L130.649 134.205L132.009 79.3682Z" fill="black"/>
<path d="M135.211 154.055L249.199 92.2705V118.75L135.211 180.534V154.055Z" fill="black"/>
<path d="M232.384 111.284L132.986 58.1702L132.986 31.6911L250.14 93.4762L232.384 111.284Z" fill="black"/>
<path d="M89.279 168.761L88.6884 46.1416L113.368 59.3812L113.958 182L89.279 168.761Z" fill="black"/>
<path d="M0 93.4757L113.988 31.6909V58.1701L0 119.955V93.4757Z" fill="black"/>
</svg>
