<svg width="24" height="24" viewBox="0 0 24 24" fill="none" xmlns="http://www.w3.org/2000/svg">
<path d="M23.5406 6.31883C23.4552 6.1132 23.3108 5.93752 23.1255 5.81402C22.9403 5.69052 22.7226 5.62477 22.4999 5.62508H19.8562C19.2881 4.73738 18.4477 4.05766 17.4609 3.68779C16.474 3.31791 15.3939 3.2778 14.3823 3.57345C13.3707 3.86911 12.4822 4.48462 11.8499 5.32774C11.2176 6.17086 10.8755 7.19619 10.8749 8.25008V8.32508C7.37807 7.24695 4.57494 4.48133 4.54682 4.4532C4.40129 4.30775 4.21866 4.205 4.0188 4.15612C3.81894 4.10724 3.6095 4.11411 3.41327 4.17597C3.21704 4.23784 3.04153 4.35233 2.90585 4.507C2.77016 4.66167 2.67948 4.85059 2.64369 5.0532C1.79994 9.7032 3.20619 12.8345 4.52807 14.6345C5.11316 15.4309 5.80747 16.141 6.59057 16.7438C5.24057 18.0938 3.37494 18.8157 3.35619 18.8251C3.1971 18.8823 3.05339 18.9756 2.9363 19.0975C2.81921 19.2195 2.7319 19.3669 2.68119 19.5282C2.62981 19.6903 2.61493 19.8618 2.63762 20.0304C2.66031 20.199 2.72001 20.3604 2.81244 20.5032C2.99057 20.7751 4.06869 22.1251 7.49994 22.1251C14.2593 22.1251 19.9218 16.9595 20.5593 10.2751L23.2968 7.54695C23.4524 7.3881 23.5584 7.18733 23.6017 6.96921C23.645 6.75108 23.6237 6.52507 23.5406 6.31883ZM18.6843 8.98133C18.4856 9.1704 18.368 9.42917 18.3562 9.7032C17.9906 15.4032 13.2187 19.8751 7.49994 19.8751C7.10804 19.8775 6.71646 19.8524 6.32807 19.8001C7.30307 19.172 8.40932 18.2907 9.18744 17.1282C9.27601 16.9944 9.33517 16.8433 9.36103 16.6849C9.38688 16.5265 9.37885 16.3645 9.33744 16.2095C9.29731 16.056 9.22464 15.9129 9.12435 15.7899C9.02406 15.667 8.8985 15.5671 8.75619 15.497C8.56869 15.3938 4.48119 13.2282 4.64057 7.4907C6.25307 8.71883 8.85932 10.3688 11.8124 10.8563C11.9735 10.8836 12.1386 10.8754 12.2962 10.8324C12.4537 10.7894 12.6001 10.7125 12.725 10.6073C12.8499 10.502 12.9504 10.3708 13.0194 10.2228C13.0885 10.0747 13.1245 9.91343 13.1249 9.75008V8.25008C13.1324 7.54968 13.4164 6.88064 13.9152 6.38888C14.414 5.89713 15.087 5.62256 15.7874 5.62508C16.2924 5.63163 16.7848 5.78371 17.2055 6.06307C17.6262 6.34243 17.9574 6.73721 18.1593 7.20008C18.2459 7.40146 18.3899 7.57287 18.5733 7.69291C18.7567 7.81296 18.9714 7.87632 19.1906 7.87508H19.7812L18.6843 8.98133Z" fill="white"/>
</svg>
