<svg width="174" height="174" viewBox="0 0 174 174" fill="none" xmlns="http://www.w3.org/2000/svg">
<g clip-path="url(#clip0_609_2)">
<path d="M92.1853 0C120.252 0 143.011 22.3242 143.011 49.8684C143.004 57.1086 141.405 64.2588 138.328 70.8124C135.25 77.3659 130.769 83.1626 125.202 87.7917C127.586 88.9488 129.752 90.1146 131.709 91.2891C135.929 93.8121 140.305 96.9441 144.846 100.676C145.459 101.173 145.966 101.788 146.338 102.484C146.709 103.181 146.937 103.944 147.008 104.73C147.08 105.516 146.993 106.308 146.753 107.06C146.513 107.811 146.125 108.507 145.612 109.107C144.56 110.328 143.073 111.09 141.467 111.23C139.861 111.37 138.263 110.876 137.016 109.855C133.341 106.788 129.444 103.997 125.358 101.503C121.373 99.1841 117.234 97.1406 112.97 95.3868C106.417 98.2684 99.3349 99.75 92.1766 99.7368C84.2898 99.7504 76.5056 97.9494 69.4261 94.4733L69.0607 94.6473C51.8608 101.224 39.3067 110.951 31.2157 123.862C23.0812 136.816 19.7578 151.293 21.2455 167.484C21.3098 168.273 21.2175 169.068 20.9739 169.822C20.7304 170.576 20.3404 171.275 19.8264 171.878C19.3123 172.48 18.6843 172.976 17.9783 173.336C17.2723 173.696 16.5023 173.912 15.7123 173.974C14.1164 174.129 12.5238 173.646 11.283 172.631C10.0423 171.615 9.25433 170.149 9.09165 168.554C7.37775 149.831 11.2927 132.771 20.8192 117.589C29.206 104.226 41.5252 93.8382 57.6202 86.4345C52.5015 81.8167 48.4087 76.1761 45.6063 69.8775C42.8039 63.5789 41.3543 56.7623 41.3512 49.8684C41.3512 22.3242 64.1191 0 92.1853 0ZM155.025 123.888C156.157 122.77 157.683 122.141 159.274 122.136C160.866 122.131 162.395 122.751 163.534 123.862C165.883 126.176 165.883 129.934 163.551 132.257L153.181 142.515L163.551 152.781C164.108 153.329 164.55 153.982 164.851 154.703C165.152 155.423 165.306 156.197 165.304 156.978C165.302 157.759 165.145 158.532 164.841 159.251C164.537 159.97 164.093 160.622 163.534 161.167C162.397 162.281 160.869 162.904 159.278 162.902C157.687 162.901 156.16 162.275 155.025 161.159L144.699 150.919L134.372 161.159C133.358 162.155 132.027 162.764 130.611 162.88C129.194 162.996 127.782 162.612 126.62 161.794L125.872 161.167C125.313 160.622 124.869 159.97 124.565 159.251C124.261 158.532 124.103 157.759 124.102 156.978C124.1 156.197 124.254 155.423 124.555 154.703C124.856 153.982 125.298 153.329 125.854 152.781L136.207 142.515L125.854 132.249C125.298 131.701 124.856 131.047 124.555 130.327C124.254 129.606 124.1 128.833 124.102 128.052C124.103 127.271 124.261 126.498 124.565 125.778C124.869 125.059 125.313 124.407 125.872 123.862C127.009 122.752 128.536 122.132 130.125 122.136C131.714 122.139 133.239 122.765 134.372 123.879L144.699 134.11L155.025 123.888ZM92.1853 11.9625C70.8442 11.9625 53.5573 28.9275 53.5573 49.8597C53.5573 70.7919 70.8442 87.7656 92.1853 87.7656C113.518 87.7656 130.813 70.8006 130.813 49.8597C130.813 28.9275 113.518 11.9625 92.1853 11.9625Z" fill="black"/>
</g>
<defs>
<clipPath id="clip0_609_2">
<rect width="174" height="174" fill="white"/>
</clipPath>
</defs>
</svg>
